<?xml version="1.0" encoding="UTF-8"?>
<svg id="Layer_2" data-name="Layer 2" xmlns="http://www.w3.org/2000/svg" viewBox="0 0 388.27 298.63">
  <defs>
    <style>
      .cls-1 {
        fill: #f8d659;
      }

      .cls-1, .cls-2 {
        stroke-width: 0px;
      }

      .cls-2 {
        fill: #2544aa;
      }
    </style>
  </defs>
  <g id="Layer_1-2" data-name="Layer 1">
    <g>
      <path class="cls-1" d="m159.69,285.71c-6.48-27.51-11.4-60.17-2.08-85.03-.86-45.1-81.35-70.96-86.82-15.94-3.72,20.88,16.9,108.81-3.8,111.7-68.07,7.22-31.51-69.85-37.89-116.56,1.16-40.51-13.3-103.48-8.24-149.26,35.82-14.9,56.9-1.38,47.67,38.71,2.63,28.16,3.32,20.06,3.96,67.32,102.45-46,128.55,34.28,119.64,120.2-4.63,12.76,15.55,40.54-2.98,40.47-9.59-3.86-31,3.85-29.46-11.6Z"/>
      <path class="cls-1" d="m267.15,235.44c15.5,6.27,5.05,24.4,13.61,30.25,7.04,4.48,22.41,8.77,25.22-.21,92.98-25.55-11.91-79.06-58.01-95.75-10.57-15.83-36.85-53.03-22.95-65.81-3.27-10.05-1.71-16.87,4.98-20.69,17.92-59.15,140.7-79.84,146.59-1.13-4.49,19.56-48.04,12.82-36.01-16.75-51.18-21.15-121.69,43.84-55.57,83.55,46.59,20.21,145.41,69.18,73.75,122.97-65.23,72.75-174.78-24.66-91.63-36.44Z"/>
      <g>
        <path class="cls-2" d="m38.12,12c19.82,0,29.43,15.11,22.63,44.6,2.63,28.16,3.32,20.06,3.96,67.32,20.64-9.27,38.19-13.41,52.98-13.41,58.58,0,73.78,65,66.67,133.61-4.63,12.75,15.5,40.47-2.91,40.47-.02,0-.05,0-.07,0-9.59-3.86-31,3.85-29.46-11.6-6.48-27.51-11.4-60.17-2.08-85.03-.52-26.99-29.55-47.09-53.95-47.09-16.38,0-30.67,9.05-32.86,31.15-3.72,20.88,16.9,108.81-3.8,111.7-3,.32-5.81.47-8.42.47-56.52,0-23.37-72.38-29.47-117.04,1.16-40.51-13.3-103.48-8.24-149.26,9.47-3.94,17.91-5.89,25.03-5.89m0-12c-8.8,0-18.77,2.29-29.64,6.81-4.03,1.68-6.84,5.42-7.32,9.76-3.05,27.54.49,59.69,3.91,90.78,2.43,22.1,4.73,42.98,4.26,59.46-.02.66.02,1.32.11,1.97,1.67,12.24-.09,27.94-1.78,43.12-3,26.78-6.1,54.48,8.83,71.16,7.79,8.71,19.34,13.13,34.32,13.13,3.05,0,6.3-.18,9.68-.54.13-.01.26-.03.4-.05,4.53-.63,12.75-3.5,16.83-15.59,1.77-5.25,2.71-12.05,2.86-20.79.25-14.51-1.7-32.73-3.43-48.81-1.54-14.4-3.29-30.72-2.3-36.3.05-.3.1-.61.13-.92,1.34-13.49,8.38-20.33,20.92-20.33,18.06,0,40.03,14.7,41.84,33.34-9.56,28.36-3.59,63.23,2.12,87.85-.11,6.86,2.54,11.34,4.92,13.97,6.57,7.26,16.44,7.26,24.37,7.27,2.61,0,6.54,0,7.8.44,1.42.57,2.89.85,4.42.86h.11c8.83,0,13.66-3.93,16.15-7.23,6.34-8.37,3.29-19.18.6-28.72-1.02-3.63-2.93-10.37-2.52-12.54.31-.89.52-1.81.61-2.74,3.33-32.16,4.47-91.05-25.37-124.14-13.58-15.07-31.49-22.7-53.23-22.7-12.51,0-26.34,2.62-41.27,7.82-.43-20.5-1-25.53-2.08-35.08-.4-3.52-.88-7.83-1.47-13.9,4.12-19.39,2.05-34.44-6.17-44.77C62.14,6.84,53.47,0,38.12,0h0Z"/>
        <path class="cls-2" d="m307.86,17.94c30.68,0,58.25,15.16,60.97,51.45-1.71,7.46-9.11,11.09-16.93,11.09-12.69,0-26.52-9.56-19.08-27.85-6.88-2.84-14.12-4.13-21.32-4.13-46.36,0-91.48,53.31-34.25,87.68,46.59,20.21,145.41,69.18,73.75,122.97-17.45,19.47-38.08,26.75-57.34,26.75-52.72,0-95.19-54.56-34.28-63.19,15.5,6.27,5.05,24.4,13.61,30.25,4.02,2.56,10.75,5.05,16.32,5.05,4.18,0,7.7-1.41,8.91-5.26,92.98-25.55-11.91-79.06-58.01-95.75-10.57-15.83-36.85-53.03-22.95-65.81-3.27-10.05-1.71-16.87,4.98-20.69,9.65-31.88,49.76-52.58,85.62-52.58m0-12c-20.17,0-41.01,5.67-58.68,15.97-17.91,10.44-30.92,24.92-37.05,41.11-3.92,3.35-6.58,7.68-7.79,12.75-.94,3.96-.98,8.22-.11,12.91-4.82,9.04-3.68,21.51,3.44,37.21,5.92,13.05,14.86,26.35,20.77,35.15.63.94,1.23,1.83,1.78,2.66,1.42,2.13,3.49,3.75,5.89,4.62,15.42,5.58,38.77,15.87,58.08,28.01,28.81,18.12,29.28,27.93,29.24,28.99-.12,3.04-6.24,9.8-28.41,15.89-2.77.76-5.13,2.47-6.71,4.78-2.23-.23-5.03-1.15-7.19-2.19-.11-1.06-.18-2.51-.22-3.59-.18-4.01-.39-9-2.34-14.02-2.59-6.69-7.67-11.73-14.7-14.57-1.43-.58-2.96-.87-4.5-.87-.56,0-1.12.04-1.68.12-12.77,1.81-22.71,5.63-29.56,11.35-7.52,6.28-11.29,14.88-10.64,24.22.91,12.86,10.14,26.04,25.32,36.17,14.83,9.89,32.88,15.33,50.84,15.33s42.9-5.21,65.48-29.86c21.37-16.34,31.06-34.32,28.81-53.45-3.62-30.72-38.03-59.87-105.17-89.09-11.41-7-23.76-18.4-19.53-33.64,2.16-7.8,8.43-15.66,17.19-21.57,9.35-6.31,20.39-9.78,31.06-9.78,2.48,0,4.9.19,7.26.57-.25,6.33,1.35,12.25,4.77,17.34,5.84,8.68,16.7,14.07,28.36,14.07,14.32,0,25.83-8.2,28.63-20.41.27-1.17.36-2.38.27-3.58-1.53-20.39-10.08-37-24.75-48.03-12.63-9.5-29.29-14.53-48.19-14.53h0Z"/>
      </g>
    </g>
  </g>
</svg>